USFL
nRows=240
nColumns=2
inDegrees=yes
endheader
time	tib_ant_r	
2.1623	 59.080361	
2.19556	 59.077401	
2.22883	 59.039792	
2.2621	 59.058911	
2.29536	 59.037493	
2.32863	 59.043879	
2.3619	 59.033774	
2.39516	 59.026563	
2.42843	 58.986465	
2.46169	 58.969554	
2.49496	 58.954483	
2.52823	 58.959339	
2.56149	 58.998498	
2.59476	 59.003985	
2.62802	 58.993783	
2.66129	 59.024529	
2.69456	 59.012464	
2.72782	 59.007579	
2.76109	 59.034099	
2.79435	 59.034870	
2.82762	 59.033736	
2.86089	 59.016410	
2.89415	 59.022397	
2.92742	 59.008400	
2.96069	 58.967360	
2.99395	 58.984781	
3.02722	 59.022370	
3.06048	 59.011013	
3.09375	 59.024996	
3.12702	 59.001572	
3.16028	 59.035695	
3.19355	 59.079029	
3.22681	 59.095117	
3.26008	 59.125359	
3.29335	 59.184355	
3.32661	 59.198370	
3.35988	 59.146224	
3.39315	 59.077209	
3.42641	 59.068504	
3.45968	 59.110309	
3.49294	 59.090667	
3.52621	 59.043994	
3.55948	 59.017152	
3.59274	 59.063877	
3.62601	 59.050502	
3.65927	 59.052387	
3.69254	 59.019106	
3.72581	 59.031163	
3.75907	 59.014982	
3.79234	 58.980856	
3.8256	 58.977336	
3.85887	 58.988867	
3.89214	 59.012484	
3.9254	 59.061070	
3.95867	 58.979113	
3.99194	 58.967408	
4.0252	 58.986916	
4.05847	 59.012143	
4.09173	 59.041000	
4.125	 59.046790	
4.15827	 59.061460	
4.19153	 59.062162	
4.2248	 59.051357	
4.25806	 59.074862	
4.29133	 59.066559	
4.3246	 59.063278	
4.35786	 59.046185	
4.39113	 59.126020	
4.4244	 58.796182	
4.45766	 58.532532	
4.49093	 57.837137	
4.52419	 57.446086	
4.55746	 57.012142	
4.59073	 56.526409	
4.62399	 55.793447	
4.65726	 55.259765	
4.69052	 55.300809	
4.72379	 55.214301	
4.75706	 54.726182	
4.79032	 54.300336	
4.82359	 53.982307	
4.85685	 53.751720	
4.89012	 53.408404	
4.92339	 53.132861	
4.95665	 53.049684	
4.98992	 52.873094	
5.02319	 52.688946	
5.05645	 52.256914	
5.08972	 52.483761	
5.12298	 52.379619	
5.15625	 52.328461	
5.18952	 52.338256	
5.22278	 52.375722	
5.25605	 52.258100	
5.28931	 51.830059	
5.32258	 51.695492	
5.35585	 51.454296	
5.38911	 51.197831	
5.42238	 50.981521	
5.45565	 50.918303	
5.48891	 50.595615	
5.52218	 50.256806	
5.55544	 49.640863	
5.58871	 49.219648	
5.62198	 48.983544	
5.65524	 48.841510	
5.68851	 48.640168	
5.72177	 48.554443	
5.75504	 48.389861	
5.78831	 48.255409	
5.82157	 48.205812	
5.85484	 48.068547	
5.8881	 48.106497	
5.92137	 48.137437	
5.95464	 48.121798	
5.9879	 48.093135	
6.02117	 48.198212	
6.05444	 48.187596	
6.0877	 48.292684	
6.12097	 48.601849	
6.15423	 48.768657	
6.1875	 49.007774	
6.22077	 49.155699	
6.25403	 49.371283	
6.2873	 49.471506	
6.32056	 49.541797	
6.35383	 49.680645	
6.3871	 49.820219	
6.42036	 49.872378	
6.45363	 49.958663	
6.4869	 50.083783	
6.52016	 50.139959	
6.55343	 50.230730	
6.58669	 50.323129	
6.61996	 50.379776	
6.65323	 50.423825	
6.68649	 50.357365	
6.71976	 50.313074	
6.75302	 50.186437	
6.78629	 50.013258	
6.81956	 49.780951	
6.85282	 49.858981	
6.88609	 49.913441	
6.91935	 49.927211	
6.95262	 49.977683	
6.98589	 49.906377	
7.01915	 49.931925	
7.05242	 50.019500	
7.08569	 49.955064	
7.11895	 49.844704	
7.15222	 49.703642	
7.18548	 49.727305	
7.21875	 49.773713	
7.25202	 49.905928	
7.28528	 49.936787	
7.31855	 49.952458	
7.35181	 49.993813	
7.38508	 50.070622	
7.41835	 50.122221	
7.45161	 50.160340	
7.48488	 50.206408	
7.51815	 50.217844	
7.55141	 50.230452	
7.58468	 50.267086	
7.61794	 50.353912	
7.65121	 50.376991	
7.68448	 50.368455	
7.71774	 50.384788	
7.75101	 50.408750	
7.78427	 50.395869	
7.81754	 50.423988	
7.85081	 50.433292	
7.88407	 50.438812	
7.91734	 50.452779	
7.9506	 50.427630	
7.98387	 50.407658	
8.01714	 50.403275	
8.0504	 50.437912	
8.08367	 50.400640	
8.11694	 50.396939	
8.1502	 50.357139	
8.18347	 50.328586	
8.21673	 50.338746	
8.25	 50.226719	
8.28327	 50.223601	
8.31653	 50.261155	
8.3498	 50.248548	
8.38306	 50.203905	
8.41633	 50.195369	
8.4496	 50.250831	
8.48286	 50.234982	
8.51613	 50.219276	
8.5494	 50.226937	
8.58266	 50.195284	
8.61593	 50.231742	
8.64919	 50.205430	
8.68246	 50.165541	
8.71573	 50.224733	
8.74899	 50.261267	
8.78226	 50.286831	
8.81552	 50.280501	
8.84879	 50.258055	
8.88206	 50.269100	
8.91532	 50.267057	
8.94859	 50.280475	
8.98185	 50.256959	
9.01512	 50.328035	
9.04839	 50.338573	
9.08165	 50.313384	
9.11492	 50.374674	
9.14819	 50.429287	
9.18145	 50.715451	
9.21472	 51.094565	
9.24798	 51.250913	
9.28125	 51.696943	
9.31452	 52.206095	
9.34778	 52.016295	
9.38105	 52.201241	
9.41431	 52.639649	
9.44758	 53.080592	
9.48085	 53.144941	
9.51411	 53.406275	
9.54738	 53.383095	
9.58065	 53.446542	
9.61391	 53.565198	
9.64718	 53.739624	
9.68044	 53.566122	
9.71371	 53.485816	
9.74698	 53.485511	
9.78024	 53.455977	
9.81351	 53.406134	
9.84677	 53.392973	
9.88004	 53.343268	
9.91331	 53.345176	
9.94657	 53.373378	
9.97984	 53.352429	
10.0131	 53.390692	
10.0464	 53.380317	
10.0796	 53.343989	
10.1129	 53.333550	
